<svg width="64" height="64" viewBox="0 0 64 64" fill="none" xmlns="http://www.w3.org/2000/svg">
<path d="M14.2086 15.0303C13.7454 14.5318 13.7454 13.7235 14.2086 13.225L17.1361 10.0742L17.5635 9.61421C18.0267 9.11567 18.7777 9.11567 19.2409 9.61421L21.0622 11.5745L21.1851 11.7067L23.4345 14.1277L21.1851 16.5486L21.0622 16.6809L19.2409 18.6411C18.7777 19.1396 18.0267 19.1396 17.5635 18.6411L17.1361 18.1812L14.2086 15.0303Z" fill="url(#paint0_linear_901_3)"/>
<path d="M6.25318 30.0851V35.1915H8.79087C8.96559 35.1451 9.14331 35.101 9.32387 35.0593L11.5733 32.6383L9.32386 30.2173C9.14331 30.1756 8.96559 30.1315 8.79087 30.0851H6.25318Z" fill="url(#paint1_linear_901_3)"/>
<path d="M18.5563 30.2278L16.3167 32.6383L18.5563 35.0488C18.7526 35.0936 18.9456 35.1412 19.1351 35.1915H33.6994C33.8593 35.1491 34.0217 35.1085 34.1865 35.07L36.4458 32.6383L34.1865 30.2066C34.0217 30.1681 33.8593 30.1275 33.6994 30.0851H19.1351C18.9456 30.1354 18.7526 30.183 18.5563 30.2278Z" fill="url(#paint2_linear_901_3)"/>
<path d="M36.565 23.1546C37.4914 24.1516 38.9935 24.1516 39.9199 23.1546L42.1487 20.7558C41.1161 20.5966 40.0148 20.5106 38.8715 20.5106C38.0377 20.5106 37.2263 20.5564 36.4475 20.6429C36.4817 20.8093 36.4993 20.9782 36.4993 21.1489C36.4993 21.6559 36.3448 22.1457 36.0572 22.608L36.565 23.1546Z" fill="url(#paint3_linear_901_3)"/>
<path d="M44.2087 30.0851L41.8368 32.638H46.5813V30.0851H44.2087Z" fill="url(#paint4_linear_901_3)"/>
<path d="M46.5813 35.1915V32.638H41.8368L44.2093 35.1915H46.5813Z" fill="url(#paint5_linear_901_3)"/>
<path d="M39.9199 40.8454C38.9935 39.8484 37.4914 39.8484 36.565 40.8454L36.0572 41.392C36.3448 41.8543 36.4993 42.3441 36.4993 42.8511C36.4993 43.4517 36.2825 44.0281 35.8843 44.5633C36.8322 44.6952 37.8346 44.766 38.8715 44.766C40.3685 44.766 41.7934 44.6186 43.0865 44.3525L43.1635 44.3365L39.9199 40.8454Z" fill="url(#paint6_linear_901_3)"/>
<path d="M24.7038 41.6652C25.6302 42.6623 27.1323 42.6623 28.0587 41.6652L28.61 41.0719C28.3407 40.6233 28.1964 40.1495 28.1964 39.6596C28.1964 39.059 28.4132 38.4826 28.8114 37.9473C27.8635 37.8154 26.8611 37.7447 25.8242 37.7447C25.1772 37.7447 24.5436 37.7722 23.9284 37.825C24.3868 38.3944 24.6381 39.0129 24.6381 39.6596C24.6381 40.1666 24.4836 40.6563 24.196 41.1186L24.7038 41.6652Z" fill="url(#paint7_linear_901_3)"/>
<path d="M19.2409 45.3589C18.7777 44.8604 18.0267 44.8604 17.5635 45.3589L17.1361 45.8188C18.0581 46.4353 19.2596 46.9495 20.6521 47.3191H21.0622L19.2409 45.3589Z" fill="url(#paint8_linear_901_3)"/>
<path fill-rule="evenodd" clip-rule="evenodd" d="M36.0572 5.64736L36.565 5.10076C37.4914 4.10368 38.9935 4.10368 39.9199 5.10076L46.6296 12.3223C47.556 13.3194 47.556 14.936 46.6296 15.933L42.1487 20.7558C41.1161 20.5966 40.0148 20.5106 38.8715 20.5106C38.0377 20.5106 37.2263 20.5564 36.4475 20.6429C36.4817 20.8093 36.4993 20.9782 36.4993 21.1489C36.4993 21.6559 36.3448 22.1457 36.0572 22.608L34.5194 20.9529L30.5501 16.6809L30.4175 16.5381C29.0262 16.2204 27.4686 16.0426 25.8242 16.0426C24.1617 16.0426 22.5879 16.2243 21.1851 16.5486L21.0622 16.6809L19.2409 18.6411C18.7777 19.1396 18.0267 19.1396 17.5635 18.6411L17.1361 18.1812C18.0581 17.5647 19.2596 17.0505 20.6521 16.6809H18.1144V11.5745H20.6521C19.2596 11.2049 18.0581 10.6906 17.1361 10.0742L17.5635 9.61421C18.0267 9.11567 18.7777 9.11567 19.2409 9.61421L21.0622 11.5745L21.1851 11.7067C22.5879 12.031 24.1617 12.2128 25.8242 12.2128C27.4686 12.2128 29.0262 12.0349 30.4175 11.7172L30.5501 11.5745L36.0572 5.64736ZM30.1162 25.8258L28.61 24.2047L28.0587 23.6114C27.1323 22.6143 25.6302 22.6143 24.7038 23.6114L24.196 24.158L22.4841 26.0004L18.6889 30.0851L18.5563 30.2278C17.165 30.5455 15.6074 30.7234 13.963 30.7234C12.3005 30.7234 10.7267 30.5416 9.32386 30.2173L9.20102 30.0851L7.37969 28.1248C6.91648 27.6263 6.16547 27.6263 5.70226 28.1248L5.27491 28.5848L2.34741 31.7356C1.8842 32.2342 1.8842 33.0424 2.34741 33.541L5.27491 36.6918L5.70226 37.1517C6.16547 37.6503 6.91648 37.6503 7.37969 37.1517L9.20102 35.1915L9.32387 35.0593C10.7267 34.735 12.3005 34.5532 13.963 34.5532C15.6074 34.5532 17.165 34.7311 18.5563 35.0488L18.6889 35.1915L21.4721 38.1869L24.196 41.1186C24.4836 40.6563 24.6381 40.1666 24.6381 39.6596C24.6381 39.0129 24.3868 38.3944 23.9284 37.825C24.5436 37.7722 25.1772 37.7447 25.8242 37.7447C26.8611 37.7447 27.8635 37.8154 28.8114 37.9473C28.4132 38.4826 28.1964 39.059 28.1964 39.6596C28.1964 40.1495 28.3407 40.6233 28.61 41.0719L31.0859 38.407L34.0736 35.1915L34.1865 35.07C35.6009 34.739 37.1908 34.5532 38.8715 34.5532C40.748 34.5532 42.5114 34.7848 44.0436 35.1915H44.2093L44.2657 35.2521L49.3257 40.6981L61.9499 54.2853L61.9865 48.8172C61.9957 47.4502 61.4952 46.1363 60.597 45.1696L48.9535 32.638L60.6104 20.0914C61.5001 19.1337 62 17.8349 62 16.4806L62 10.9362L49.3254 24.5779L44.2648 30.0247L44.2087 30.0851H44.0436C42.5114 30.4918 40.748 30.7234 38.8715 30.7234C37.1908 30.7234 35.6009 30.5376 34.1865 30.2066L34.0736 30.0851L30.1162 25.8258ZM44.2087 30.0851H46.5813V32.638V35.1915H44.2093L41.8368 32.638L44.2087 30.0851ZM34.1865 30.2066L36.4458 32.6383L34.1865 35.07C34.0217 35.1085 33.8593 35.1491 33.6994 35.1915H19.1351C18.9456 35.1412 18.7526 35.0936 18.5563 35.0488L16.3167 32.6383L18.5563 30.2278C18.7526 30.183 18.9456 30.1354 19.1351 30.0851H33.6994C33.8593 30.1275 34.0217 30.1681 34.1865 30.2066ZM9.32387 35.0593L11.5733 32.6383L9.32386 30.2173C9.14331 30.1756 8.96559 30.1315 8.79087 30.0851H6.25318V35.1915H8.79087C8.96559 35.1451 9.14331 35.101 9.32387 35.0593ZM33.5524 44.0879L30.5501 47.3191L30.4175 47.4619C29.0262 47.7796 27.4686 47.9574 25.8242 47.9574C24.1617 47.9574 22.5879 47.7757 21.1851 47.4514L21.0622 47.3191H20.6521C19.2596 46.9495 18.0581 46.4353 17.1361 45.8188L14.2086 48.9697C13.7454 49.4682 13.7454 50.2765 14.2086 50.775L17.1361 53.9258L17.5635 54.3858C18.0267 54.8843 18.7777 54.8843 19.2409 54.3858L21.0622 52.4255L21.1851 52.2933C22.5879 51.969 24.1617 51.7872 25.8242 51.7872C27.4686 51.7872 29.0262 51.9651 30.4175 52.2828L30.5501 52.4255L36.0572 58.3526L36.565 58.8992C37.4914 59.8963 38.9935 59.8963 39.9199 58.8992L46.6296 51.6777C47.556 50.6806 47.556 49.064 46.6296 48.067L43.1635 44.3365L43.0865 44.3525C41.7934 44.6186 40.3685 44.766 38.8715 44.766C37.8346 44.766 36.8322 44.6952 35.8843 44.5633C36.2825 44.0281 36.4993 43.4517 36.4993 42.8511C36.4993 42.3441 36.3448 41.8543 36.0572 41.392L33.5524 44.0879Z" fill="url(#paint9_linear_901_3)"/>
<defs>
<linearGradient id="paint0_linear_901_3" x1="0.75" y1="30.75" x2="60.75" y2="30.75" gradientUnits="userSpaceOnUse">
<stop offset="0.177083" stop-color="#008080"/>
<stop offset="0.4999" stop-color="#00AEAE"/>
<stop offset="1" stop-color="#00DCDC"/>
</linearGradient>
<linearGradient id="paint1_linear_901_3" x1="0.75" y1="30.75" x2="60.75" y2="30.75" gradientUnits="userSpaceOnUse">
<stop offset="0.177083" stop-color="#008080"/>
<stop offset="0.4999" stop-color="#00AEAE"/>
<stop offset="1" stop-color="#00DCDC"/>
</linearGradient>
<linearGradient id="paint2_linear_901_3" x1="0.75" y1="30.75" x2="60.75" y2="30.75" gradientUnits="userSpaceOnUse">
<stop offset="0.177083" stop-color="#008080"/>
<stop offset="0.4999" stop-color="#00AEAE"/>
<stop offset="1" stop-color="#00DCDC"/>
</linearGradient>
<linearGradient id="paint3_linear_901_3" x1="0.75" y1="30.75" x2="60.75" y2="30.75" gradientUnits="userSpaceOnUse">
<stop offset="0.177083" stop-color="#008080"/>
<stop offset="0.4999" stop-color="#00AEAE"/>
<stop offset="1" stop-color="#00DCDC"/>
</linearGradient>
<linearGradient id="paint4_linear_901_3" x1="0.75" y1="30.75" x2="60.75" y2="30.75" gradientUnits="userSpaceOnUse">
<stop offset="0.177083" stop-color="#008080"/>
<stop offset="0.4999" stop-color="#00AEAE"/>
<stop offset="1" stop-color="#00DCDC"/>
</linearGradient>
<linearGradient id="paint5_linear_901_3" x1="0.75" y1="30.75" x2="60.75" y2="30.75" gradientUnits="userSpaceOnUse">
<stop offset="0.177083" stop-color="#008080"/>
<stop offset="0.4999" stop-color="#00AEAE"/>
<stop offset="1" stop-color="#00DCDC"/>
</linearGradient>
<linearGradient id="paint6_linear_901_3" x1="0.75" y1="30.75" x2="60.75" y2="30.75" gradientUnits="userSpaceOnUse">
<stop offset="0.177083" stop-color="#008080"/>
<stop offset="0.4999" stop-color="#00AEAE"/>
<stop offset="1" stop-color="#00DCDC"/>
</linearGradient>
<linearGradient id="paint7_linear_901_3" x1="0.75" y1="30.75" x2="60.75" y2="30.75" gradientUnits="userSpaceOnUse">
<stop offset="0.177083" stop-color="#008080"/>
<stop offset="0.4999" stop-color="#00AEAE"/>
<stop offset="1" stop-color="#00DCDC"/>
</linearGradient>
<linearGradient id="paint8_linear_901_3" x1="0.75" y1="30.75" x2="60.75" y2="30.75" gradientUnits="userSpaceOnUse">
<stop offset="0.177083" stop-color="#008080"/>
<stop offset="0.4999" stop-color="#00AEAE"/>
<stop offset="1" stop-color="#00DCDC"/>
</linearGradient>
<linearGradient id="paint9_linear_901_3" x1="0.75" y1="30.75" x2="60.75" y2="30.75" gradientUnits="userSpaceOnUse">
<stop offset="0.177083" stop-color="#008080"/>
<stop offset="0.4999" stop-color="#00AEAE"/>
<stop offset="1" stop-color="#00DCDC"/>
</linearGradient>
</defs>
</svg>
